<mxfile host="app.diagrams.net" modified="2020-07-20T10:44:42.043Z" agent="5.0 (Macintosh; Intel Mac OS X 10_15_5) AppleWebKit/537.36 (KHTML, like Gecko) Chrome/83.0.4103.116 Safari/537.36" etag="T6j5t3rgJPgr0toZApBf" version="13.4.6" type="github">
  <diagram id="N1dQDMGyaJ_yt_dGtYT0" name="Page-1">
    <mxGraphModel dx="2066" dy="1105" grid="1" gridSize="10" guides="1" tooltips="1" connect="1" arrows="1" fold="1" page="1" pageScale="1" pageWidth="827" pageHeight="1169" math="0" shadow="0">
      <root>
        <mxCell id="0" />
        <mxCell id="1" parent="0" />
        <mxCell id="yOHhlWmfEN-MeG-xze2E-36" value="" style="shape=curlyBracket;whiteSpace=wrap;html=1;rounded=1;direction=west;" vertex="1" parent="1">
          <mxGeometry x="320" y="250" width="20" height="220" as="geometry" />
        </mxCell>
        <mxCell id="yOHhlWmfEN-MeG-xze2E-37" value="&lt;font style=&quot;font-size: 14px&quot;&gt;Interrupt Descriptor Table&lt;br&gt;stored in RAM&lt;/font&gt;" style="text;html=1;align=center;verticalAlign=middle;resizable=0;points=[];autosize=1;rotation=270;" vertex="1" parent="1">
          <mxGeometry x="290" y="340" width="170" height="40" as="geometry" />
        </mxCell>
        <mxCell id="yOHhlWmfEN-MeG-xze2E-15" value="" style="shape=table;html=1;whiteSpace=wrap;startSize=0;container=1;collapsible=0;childLayout=tableLayout;" vertex="1" parent="1">
          <mxGeometry x="240" y="250" width="60" height="220" as="geometry" />
        </mxCell>
        <mxCell id="yOHhlWmfEN-MeG-xze2E-16" value="" style="shape=partialRectangle;html=1;whiteSpace=wrap;collapsible=0;dropTarget=0;pointerEvents=0;fillColor=none;top=0;left=0;bottom=0;right=0;points=[[0,0.5],[1,0.5]];portConstraint=eastwest;" vertex="1" parent="yOHhlWmfEN-MeG-xze2E-15">
          <mxGeometry width="60" height="22" as="geometry" />
        </mxCell>
        <mxCell id="yOHhlWmfEN-MeG-xze2E-17" value="" style="shape=partialRectangle;html=1;whiteSpace=wrap;connectable=0;overflow=hidden;fillColor=#dae8fc;top=0;left=0;bottom=0;right=0;strokeColor=#6c8ebf;" vertex="1" parent="yOHhlWmfEN-MeG-xze2E-16">
          <mxGeometry width="60" height="22" as="geometry" />
        </mxCell>
        <mxCell id="yOHhlWmfEN-MeG-xze2E-18" value="" style="shape=partialRectangle;html=1;whiteSpace=wrap;collapsible=0;dropTarget=0;pointerEvents=0;fillColor=none;top=0;left=0;bottom=0;right=0;points=[[0,0.5],[1,0.5]];portConstraint=eastwest;" vertex="1" parent="yOHhlWmfEN-MeG-xze2E-15">
          <mxGeometry y="22" width="60" height="22" as="geometry" />
        </mxCell>
        <mxCell id="yOHhlWmfEN-MeG-xze2E-19" value="" style="shape=partialRectangle;html=1;whiteSpace=wrap;connectable=0;overflow=hidden;fillColor=#d5e8d4;top=0;left=0;bottom=0;right=0;strokeColor=#82b366;" vertex="1" parent="yOHhlWmfEN-MeG-xze2E-18">
          <mxGeometry width="60" height="22" as="geometry" />
        </mxCell>
        <mxCell id="yOHhlWmfEN-MeG-xze2E-20" value="" style="shape=partialRectangle;html=1;whiteSpace=wrap;collapsible=0;dropTarget=0;pointerEvents=0;fillColor=none;top=0;left=0;bottom=0;right=0;points=[[0,0.5],[1,0.5]];portConstraint=eastwest;" vertex="1" parent="yOHhlWmfEN-MeG-xze2E-15">
          <mxGeometry y="44" width="60" height="22" as="geometry" />
        </mxCell>
        <mxCell id="yOHhlWmfEN-MeG-xze2E-21" value="" style="shape=partialRectangle;html=1;whiteSpace=wrap;connectable=0;overflow=hidden;fillColor=#ffe6cc;top=0;left=0;bottom=0;right=0;strokeColor=#d79b00;" vertex="1" parent="yOHhlWmfEN-MeG-xze2E-20">
          <mxGeometry width="60" height="22" as="geometry" />
        </mxCell>
        <mxCell id="yOHhlWmfEN-MeG-xze2E-22" value="" style="shape=partialRectangle;html=1;whiteSpace=wrap;collapsible=0;dropTarget=0;pointerEvents=0;fillColor=none;top=0;left=0;bottom=0;right=0;points=[[0,0.5],[1,0.5]];portConstraint=eastwest;" vertex="1" parent="yOHhlWmfEN-MeG-xze2E-15">
          <mxGeometry y="66" width="60" height="22" as="geometry" />
        </mxCell>
        <mxCell id="yOHhlWmfEN-MeG-xze2E-23" value="" style="shape=partialRectangle;html=1;whiteSpace=wrap;connectable=0;overflow=hidden;fillColor=#fff2cc;top=0;left=0;bottom=0;right=0;strokeColor=#d6b656;" vertex="1" parent="yOHhlWmfEN-MeG-xze2E-22">
          <mxGeometry width="60" height="22" as="geometry" />
        </mxCell>
        <mxCell id="yOHhlWmfEN-MeG-xze2E-24" value="" style="shape=partialRectangle;html=1;whiteSpace=wrap;collapsible=0;dropTarget=0;pointerEvents=0;fillColor=none;top=0;left=0;bottom=0;right=0;points=[[0,0.5],[1,0.5]];portConstraint=eastwest;" vertex="1" parent="yOHhlWmfEN-MeG-xze2E-15">
          <mxGeometry y="88" width="60" height="22" as="geometry" />
        </mxCell>
        <mxCell id="yOHhlWmfEN-MeG-xze2E-25" value="" style="shape=partialRectangle;html=1;whiteSpace=wrap;connectable=0;overflow=hidden;fillColor=#f8cecc;top=0;left=0;bottom=0;right=0;strokeColor=#b85450;" vertex="1" parent="yOHhlWmfEN-MeG-xze2E-24">
          <mxGeometry width="60" height="22" as="geometry" />
        </mxCell>
        <mxCell id="yOHhlWmfEN-MeG-xze2E-26" value="" style="shape=partialRectangle;html=1;whiteSpace=wrap;collapsible=0;dropTarget=0;pointerEvents=0;fillColor=none;top=0;left=0;bottom=0;right=0;points=[[0,0.5],[1,0.5]];portConstraint=eastwest;" vertex="1" parent="yOHhlWmfEN-MeG-xze2E-15">
          <mxGeometry y="110" width="60" height="22" as="geometry" />
        </mxCell>
        <mxCell id="yOHhlWmfEN-MeG-xze2E-27" value="" style="shape=partialRectangle;html=1;whiteSpace=wrap;connectable=0;overflow=hidden;fillColor=#e1d5e7;top=0;left=0;bottom=0;right=0;strokeColor=#9673a6;" vertex="1" parent="yOHhlWmfEN-MeG-xze2E-26">
          <mxGeometry width="60" height="22" as="geometry" />
        </mxCell>
        <mxCell id="yOHhlWmfEN-MeG-xze2E-28" value="" style="shape=partialRectangle;html=1;whiteSpace=wrap;collapsible=0;dropTarget=0;pointerEvents=0;fillColor=none;top=0;left=0;bottom=0;right=0;points=[[0,0.5],[1,0.5]];portConstraint=eastwest;" vertex="1" parent="yOHhlWmfEN-MeG-xze2E-15">
          <mxGeometry y="132" width="60" height="22" as="geometry" />
        </mxCell>
        <mxCell id="yOHhlWmfEN-MeG-xze2E-29" value="" style="shape=partialRectangle;html=1;whiteSpace=wrap;connectable=0;overflow=hidden;fillColor=#60a917;top=0;left=0;bottom=0;right=0;strokeColor=#2D7600;fontColor=#ffffff;" vertex="1" parent="yOHhlWmfEN-MeG-xze2E-28">
          <mxGeometry width="60" height="22" as="geometry" />
        </mxCell>
        <mxCell id="yOHhlWmfEN-MeG-xze2E-30" value="" style="shape=partialRectangle;html=1;whiteSpace=wrap;collapsible=0;dropTarget=0;pointerEvents=0;fillColor=none;top=0;left=0;bottom=0;right=0;points=[[0,0.5],[1,0.5]];portConstraint=eastwest;" vertex="1" parent="yOHhlWmfEN-MeG-xze2E-15">
          <mxGeometry y="154" width="60" height="22" as="geometry" />
        </mxCell>
        <mxCell id="yOHhlWmfEN-MeG-xze2E-31" value="" style="shape=partialRectangle;html=1;whiteSpace=wrap;connectable=0;overflow=hidden;fillColor=#008a00;top=0;left=0;bottom=0;right=0;strokeColor=#005700;fontColor=#ffffff;" vertex="1" parent="yOHhlWmfEN-MeG-xze2E-30">
          <mxGeometry width="60" height="22" as="geometry" />
        </mxCell>
        <mxCell id="yOHhlWmfEN-MeG-xze2E-32" value="" style="shape=partialRectangle;html=1;whiteSpace=wrap;collapsible=0;dropTarget=0;pointerEvents=0;fillColor=none;top=0;left=0;bottom=0;right=0;points=[[0,0.5],[1,0.5]];portConstraint=eastwest;" vertex="1" parent="yOHhlWmfEN-MeG-xze2E-15">
          <mxGeometry y="176" width="60" height="22" as="geometry" />
        </mxCell>
        <mxCell id="yOHhlWmfEN-MeG-xze2E-33" value="" style="shape=partialRectangle;html=1;whiteSpace=wrap;connectable=0;overflow=hidden;fillColor=#1ba1e2;top=0;left=0;bottom=0;right=0;strokeColor=#006EAF;fontColor=#ffffff;" vertex="1" parent="yOHhlWmfEN-MeG-xze2E-32">
          <mxGeometry width="60" height="22" as="geometry" />
        </mxCell>
        <mxCell id="yOHhlWmfEN-MeG-xze2E-34" value="" style="shape=partialRectangle;html=1;whiteSpace=wrap;collapsible=0;dropTarget=0;pointerEvents=0;fillColor=none;top=0;left=0;bottom=0;right=0;points=[[0,0.5],[1,0.5]];portConstraint=eastwest;" vertex="1" parent="yOHhlWmfEN-MeG-xze2E-15">
          <mxGeometry y="198" width="60" height="22" as="geometry" />
        </mxCell>
        <mxCell id="yOHhlWmfEN-MeG-xze2E-35" value="" style="shape=partialRectangle;html=1;whiteSpace=wrap;connectable=0;overflow=hidden;fillColor=#0050ef;top=0;left=0;bottom=0;right=0;strokeColor=#001DBC;fontColor=#ffffff;" vertex="1" parent="yOHhlWmfEN-MeG-xze2E-34">
          <mxGeometry width="60" height="22" as="geometry" />
        </mxCell>
        <mxCell id="yOHhlWmfEN-MeG-xze2E-38" value="" style="endArrow=none;html=1;entryX=0;entryY=1.091;entryDx=0;entryDy=0;entryPerimeter=0;exitX=0;exitY=0;exitDx=0;exitDy=0;" edge="1" parent="1" source="yOHhlWmfEN-MeG-xze2E-40">
          <mxGeometry width="50" height="50" relative="1" as="geometry">
            <mxPoint x="200" y="540" as="sourcePoint" />
            <mxPoint x="240" y="470.00199999999995" as="targetPoint" />
          </mxGeometry>
        </mxCell>
        <mxCell id="yOHhlWmfEN-MeG-xze2E-39" value="" style="endArrow=none;html=1;exitX=1;exitY=0;exitDx=0;exitDy=0;" edge="1" parent="1" source="yOHhlWmfEN-MeG-xze2E-51">
          <mxGeometry width="50" height="50" relative="1" as="geometry">
            <mxPoint x="350" y="538" as="sourcePoint" />
            <mxPoint x="298" y="470" as="targetPoint" />
          </mxGeometry>
        </mxCell>
        <mxCell id="yOHhlWmfEN-MeG-xze2E-40" value="offset 16-31" style="rounded=0;whiteSpace=wrap;html=1;fillColor=#fff2cc;strokeColor=#d6b656;" vertex="1" parent="1">
          <mxGeometry x="160" y="540" width="140" height="40" as="geometry" />
        </mxCell>
        <mxCell id="yOHhlWmfEN-MeG-xze2E-41" value="" style="rounded=0;whiteSpace=wrap;html=1;" vertex="1" parent="1">
          <mxGeometry x="300" y="540" width="130" height="40" as="geometry" />
        </mxCell>
        <mxCell id="yOHhlWmfEN-MeG-xze2E-42" value="" style="rounded=0;whiteSpace=wrap;html=1;fillColor=#fff2cc;strokeColor=#d6b656;" vertex="1" parent="1">
          <mxGeometry x="300" y="580" width="140" height="40" as="geometry" />
        </mxCell>
        <mxCell id="yOHhlWmfEN-MeG-xze2E-43" value="Segment Selector" style="rounded=0;whiteSpace=wrap;html=1;fillColor=#dae8fc;strokeColor=#6c8ebf;" vertex="1" parent="1">
          <mxGeometry x="160" y="580" width="140" height="40" as="geometry" />
        </mxCell>
        <mxCell id="yOHhlWmfEN-MeG-xze2E-45" value="P" style="rounded=0;whiteSpace=wrap;html=1;fillColor=#1ba1e2;strokeColor=#006EAF;fontColor=#ffffff;" vertex="1" parent="1">
          <mxGeometry x="300" y="540" width="10" height="40" as="geometry" />
        </mxCell>
        <mxCell id="yOHhlWmfEN-MeG-xze2E-46" value="D&lt;br&gt;P&lt;br&gt;L" style="rounded=0;whiteSpace=wrap;html=1;fillColor=#1ba1e2;strokeColor=#006EAF;fontColor=#ffffff;" vertex="1" parent="1">
          <mxGeometry x="310" y="540" width="20" height="40" as="geometry" />
        </mxCell>
        <mxCell id="yOHhlWmfEN-MeG-xze2E-47" value="0" style="rounded=0;whiteSpace=wrap;html=1;fillColor=#1ba1e2;strokeColor=#006EAF;fontColor=#ffffff;" vertex="1" parent="1">
          <mxGeometry x="330" y="540" width="10" height="40" as="geometry" />
        </mxCell>
        <mxCell id="yOHhlWmfEN-MeG-xze2E-48" value="111" style="rounded=0;whiteSpace=wrap;html=1;fillColor=#1ba1e2;strokeColor=#006EAF;fontColor=#ffffff;" vertex="1" parent="1">
          <mxGeometry x="340" y="540" width="30" height="40" as="geometry" />
        </mxCell>
        <mxCell id="yOHhlWmfEN-MeG-xze2E-50" value="000" style="rounded=0;whiteSpace=wrap;html=1;fillColor=#1ba1e2;strokeColor=#006EAF;fontColor=#ffffff;" vertex="1" parent="1">
          <mxGeometry x="370" y="540" width="20" height="40" as="geometry" />
        </mxCell>
        <mxCell id="yOHhlWmfEN-MeG-xze2E-51" value="Resrved" style="rounded=0;whiteSpace=wrap;html=1;fillColor=#e1d5e7;strokeColor=#9673a6;" vertex="1" parent="1">
          <mxGeometry x="390" y="540" width="50" height="40" as="geometry" />
        </mxCell>
        <mxCell id="2" value="&lt;font style=&quot;font-size: 18px&quot;&gt;Interrupt/Trap Gate&lt;/font&gt;" style="text;html=1;align=center;verticalAlign=middle;resizable=0;points=[];autosize=1;" vertex="1" parent="1">
          <mxGeometry x="200" y="640" width="170" height="20" as="geometry" />
        </mxCell>
        <mxCell id="yOHhlWmfEN-MeG-xze2E-52" value="&lt;font style=&quot;font-size: 14px&quot;&gt;DPL-Descriptor Prillege level&lt;/font&gt;" style="text;html=1;align=center;verticalAlign=middle;resizable=0;points=[];autosize=1;" vertex="1" parent="1">
          <mxGeometry x="160" y="670" width="190" height="20" as="geometry" />
        </mxCell>
        <mxCell id="yOHhlWmfEN-MeG-xze2E-53" value="&lt;font style=&quot;font-size: 14px&quot;&gt;P-Present Bit&lt;/font&gt;" style="text;html=1;align=center;verticalAlign=middle;resizable=0;points=[];autosize=1;" vertex="1" parent="1">
          <mxGeometry x="160" y="700" width="100" height="20" as="geometry" />
        </mxCell>
      </root>
    </mxGraphModel>
  </diagram>
</mxfile>
